<svg id="b098510b-f452-4b85-993b-a1bbfe267c61" xmlns="http://www.w3.org/2000/svg" xmlns:xlink="http://www.w3.org/1999/xlink" viewBox="0 0 1093.27 782.75"><defs><style>.cls-1,.cls-4,.cls-5{fill:#d8384d;}.cls-1,.cls-15,.cls-2,.cls-3{opacity:0.1;}.cls-1,.cls-11,.cls-15,.cls-2,.cls-3{isolation:isolate;}.cls-2{fill:#6c63ff;}.cls-5{stroke:#535461;stroke-miterlimit:10;stroke-width:2px;}.cls-6{fill:url(#linear-gradient);}.cls-7{fill:#1d2366;}.cls-8{fill:#ffb0b1;}.cls-9{fill:#c7daf5;}.cls-10,.cls-15{fill:#fff;}.cls-11{opacity:0.03;}.cls-12{fill:#dce7ff;}.cls-13{fill:#591d4b;}.cls-14{fill:#be8b87;}.cls-16{fill:#efc8c4;}.cls-17{fill:#727a9c;}.cls-18{fill:#3acc6c;}</style><linearGradient id="linear-gradient" x1="940.71" y1="-43.72" x2="940.71" y2="518.31" gradientTransform="matrix(1, 0, 0, -1, -47.24, 723.37)" gradientUnits="userSpaceOnUse"><stop offset="0" stop-color="gray" stop-opacity="0.25"/><stop offset="0.54" stop-color="gray" stop-opacity="0.12"/><stop offset="1" stop-color="gray" stop-opacity="0.1"/></linearGradient></defs><title>illustration2</title><ellipse class="cls-1" cx="885.29" cy="767.1" rx="121.59" ry="15.65"/><path class="cls-1" d="M13.84,338.2H115.33V476.53H21.27c-.25,1.42-.49,2.85-.75,4.28h94.81V592.37c-.17,0-.32-.11-.48-.17-2.68-1.06-5.34-2.18-8-3.38l-1.7-.77q-4-1.89-8-4c-.93-.49-1.86-1-2.78-1.52a166.47,166.47,0,0,1-39.88-31.16c-.34-.33-.66-.68-1-1-1.62-1.76-3.21-3.54-4.75-5.36L47,543c-1.82-2.23-3.58-4.52-5.29-6.84-.25-.34-.49-.68-.75-1a148.88,148.88,0,0,1-17.2-31.1c-.14-.33-.26-.69-.39-1q-2.06-5.29-3.65-10.7c-.46-1.51-.9-3-1.28-4.57-.14-.46-.26-.91-.37-1.36-5.68-22.17-6.35-45.2-6.35-68.07v-8c0-9.25.11-18.56.27-27.86,0-2.41.1-4.81.15-7.23q.21-9.21.6-18.42c.06-1.71.14-3.41.23-5.11a28.94,28.94,0,0,1,.15-2.94C13.4,345.25,13.6,341.72,13.84,338.2Z" transform="translate(-11.76 0.01)"/><path class="cls-1" d="M115.33,184.18H59.66a422.51,422.51,0,0,1,29.61-40.76c8.27-10.16,17-20.06,26.06-29.6Z" transform="translate(-11.76 0.01)"/><path class="cls-1" d="M115.33,188.46V333.92H14.16c0-.42.07-.85.1-1.27.09-1.15.18-2.3.28-3.44.11-1.34.23-2.69.36-4s.27-2.91.42-4.36.29-2.92.46-4.37.32-2.9.5-4.34.34-2.9.53-4.34c.15-1.2.31-2.39.47-3.59.23-1.69.47-3.39.73-5.07a4.68,4.68,0,0,1,.11-.75,346.46,346.46,0,0,1,7.45-36.52,269.42,269.42,0,0,1,12.55-37A277.75,277.75,0,0,1,57,188.51Z" transform="translate(-11.76 0.01)"/><path class="cls-1" d="M139.56,338.19V476.53H356.33V338.19Zm0,142.61V599.6c1.24.26,2.47.51,3.69.72,1.66.32,3.31.61,5,.86.32.05.65.1,1,.13.66.11,1.34.2,2,.29,1.67.23,3.33.42,5,.57.79.08,1.59.15,2.39.21l1.93.15h0c1.05.08,2.09.14,3.12.17.64,0,1.28.06,1.94.08h7.13c.86,0,1.72,0,2.57-.08h.06a13.48,13.48,0,0,0,1.79-.08h.5a10.34,10.34,0,0,0,1.48-.07h.35l3.35-.26c1.1-.1,2.21-.23,3.33-.35l2.28-.27a199.13,199.13,0,0,0,27.45-5.84c20.22-5.64,40-13.53,60.21-19.31,26.13-7.45,55-11.11,80.25-2V480.8ZM356.33,184.18V0A278.62,278.62,0,0,0,285.9,8.27C231,22.06,181.76,52,139.56,90.17v94h10.88v4.27H139.56V333.92H356.33V188.45H195.11v-4.27ZM634.76,122c-13.58-.48-27.08-4.78-39.29-11.42-23.35-12.7-42-32.31-62.84-48.86-43.3-34.47-97-55.27-152.09-60.43V184.18H690l.77-.81ZM663,117l29.89,32.8v-41.4c-10,1.24-18.78,4.19-29.85,8.56ZM692.84,629.1V480.8H629.15c-.17-.63-.34-1.27-.54-1.91.19.64.35,1.28.53,1.91H380.58V588.05c2.36,1.75,4.69,3.59,7,5.46h0c2.49,2,4.95,4.11,7.42,6.18l2.49,2.06c1.19,1,2.39,2,3.6,2.94q3.6,2.92,7.27,5.76c1.21,1,2.45,1.9,3.68,2.84a502,502,0,0,0,61.63,40.31q7.23,4,14.59,7.81c3.27,1.67,6.56,3.33,9.86,4.94q7.44,3.63,15,7h0a550.86,550.86,0,0,0,146,42.53q16.78,2.48,33.71,3.9V629.09h0ZM380.58,188.45V333.92h312.3V188.45Zm0,149.74V476.53h312.3V338.19Zm336.54-230v46.18l38.15-41.86q-19-3.06-38.15-4.37Zm0,230.05V476.53h303.75V338.19Zm302.64,301.84,1.07-159.28H717.12V721.37a544.79,544.79,0,0,0,58.7-.7h.34q14-.88,27.87-2.56h.21a513.1,513.1,0,0,0,143.2-38.21m132-318.93c-1.14-2.69-2.33-5.36-3.54-8-2.26-5-4.65-9.86-7.11-14.72h-23.7V476.53H1105c0-39.16-9.94-79.16-25.54-115.61Zm-34.35,119.88v137c16.88-16.18,31.14-34.69,41.41-55.85,12.35-25.48,18-53.07,18.46-81.17Zm0-182.92v36h21.48a390.72,390.72,0,0,0-21.45-36.05Zm-206-162.6c-1.58-.6-3.16-1.21-4.75-1.8A434.93,434.93,0,0,0,783,118.11l-58.38,64.07h0l-1.12,1.19.75.82H932.06a444.43,444.43,0,0,0-92.94-48.91Zm99.06,53.17H721.38l-4.26,3.9V333.92h303.79V265.37a433.1,433.1,0,0,0-82.73-76.92Z" transform="translate(-11.76 0.01)"/><path class="cls-1" d="M115.33,261.83v72.09H14.16c0-.42.07-.85.1-1.27.09-1.15.18-2.3.28-3.44.11-1.34.23-2.69.36-4s.27-2.91.42-4.36.29-2.92.46-4.37.32-2.9.5-4.34.34-2.9.53-4.34c.15-1.2.31-2.39.47-3.59.23-1.69.47-3.39.73-5.07a4.68,4.68,0,0,1,.11-.75,346.46,346.46,0,0,1,7.45-36.52Z" transform="translate(-11.76 0.01)"/><path class="cls-1" d="M13.84,338.2H115.33V476.53H21.27c-.25,1.42-.49,2.85-.75,4.28h94.81V592.37c-.17,0-.32-.11-.48-.17-2.68-1.06-5.34-2.18-8-3.38l-1.7-.77q-4-1.89-8-4c-.93-.49-1.86-1-2.78-1.52a166.47,166.47,0,0,1-39.88-31.16c-.34-.33-.66-.68-1-1-1.62-1.76-3.21-3.54-4.75-5.36L47,543c-1.82-2.23-3.58-4.52-5.29-6.84-.25-.34-.49-.68-.75-1a148.88,148.88,0,0,1-17.2-31.1c-.14-.33-.26-.69-.39-1q-2.06-5.29-3.65-10.7c-.46-1.51-.9-3-1.28-4.57-.14-.46-.26-.91-.37-1.36-5.68-22.17-6.35-45.2-6.35-68.07v-8c0-9.25.11-18.56.27-27.86,0-2.41.1-4.81.15-7.23q.21-9.21.6-18.42c.06-1.71.14-3.41.23-5.11a28.94,28.94,0,0,1,.15-2.94C13.4,345.25,13.6,341.72,13.84,338.2Z" transform="translate(-11.76 0.01)"/><polygon class="cls-1" points="204.11 209.29 204.11 333.93 127.8 333.93 127.8 209.29 138.68 209.29 138.68 167.09 183.34 167.09 183.34 209.29 204.11 209.29"/><rect class="cls-1" x="127.81" y="338.2" width="76.3" height="138.33"/><path class="cls-1" d="M139.56,480.81h76.31v115a199.11,199.11,0,0,1-27.45,5.83l-2.28.28c-1.12.13-2.23.24-3.33.35s-2.24.19-3.35.26h-.35c-.48,0-1,.06-1.47.07h-.51c-.6,0-1.2.06-1.8.08h0c-.85.05-1.7.06-2.57.07h-7.08l-1.93-.07c-1,0-2.08-.11-3.12-.18h0l-1.92-.14-2.39-.22c-1.68-.15-3.35-.34-5-.57l-2-.28-1-.14c-1.67-.26-3.32-.54-5-.86-1.23-.21-2.45-.47-3.69-.72Z" transform="translate(-11.76 0.01)"/><rect class="cls-1" x="618.2" y="194.57" width="62.92" height="139.35"/><polygon class="cls-1" points="681.13 338.2 681.13 476.54 368.82 476.54 368.82 416.87 535.17 416.87 535.17 452.07 618.2 452.07 618.2 338.2 681.13 338.2"/><path class="cls-1" d="M693.88,629.13h-1v90.75q-16.9-1.43-33.7-3.89a551,551,0,0,1-146.06-42.62q-20.13-9.06-39.44-19.78A503.3,503.3,0,0,1,412,613.28q-7.37-5.64-14.53-11.54c-3.31-2.73-6.6-5.53-9.93-8.25-2.31-1.87-4.64-3.71-7-5.47V480.81H629.13c-.17-.64-.34-1.28-.52-1.91.19.63.37,1.27.54,1.91h63.73V629.07C693.22,629.08,693.55,629.11,693.88,629.13Z" transform="translate(-11.76 0.01)"/><path class="cls-1" d="M857,184.18H816V171.44h18.38V133.49q2.39.87,4.76,1.79v36.16H857Z" transform="translate(-11.76 0.01)"/><path class="cls-1" d="M955.76,333.92H754.48l.07.05-.09-.05H717.12V194.57H727.7v103h48.35v-61H816V188.46h41v48.15h39.94v61h58.83Z" transform="translate(-11.76 0.01)"/><path class="cls-1" d="M717.12,338.19V476.53H955.76V338.19Zm303.42,301.18.33-109.5H955.76v-49H717.12v240.5a544.79,544.79,0,0,0,58.7-.7h.34q14-.88,27.87-2.56h.21a513.1,513.1,0,0,0,143.2-38.21" transform="translate(-11.76 0.01)"/><path class="cls-1" d="M1049.33,480.81H1105c-.49,28.09-6.13,55.68-18.47,81.16-10.27,21.17-24.54,39.68-41.4,55.85v-88h4.2Z" transform="translate(-11.76 0.01)"/><path class="cls-1" d="M1105,476.53h-55.7V360.92h30.14C1095.07,397.37,1105,437.37,1105,476.53Z" transform="translate(-11.76 0.01)"/><rect class="cls-1" x="647.42" y="233.31" width="33.71" height="43.69"/><rect class="cls-1" x="647.42" y="323.87" width="33.71" height="10.06"/><rect class="cls-1" x="647.42" y="338.2" width="33.71" height="29.35"/><rect class="cls-1" x="647.42" y="414.43" width="33.71" height="43.69"/><rect class="cls-1" x="647.42" y="504.99" width="33.71" height="43.69"/><path class="cls-1" d="M692.88,629.07a5.54,5.54,0,0,1,1,.06h-1v10.15h-33.7V595.54h33.7Z" transform="translate(-11.76 0.01)"/><path class="cls-1" d="M692.88,686.08v33.75q-16.9-1.43-33.7-3.89V686.08Z" transform="translate(-11.76 0.01)"/><rect class="cls-1" x="368.82" y="473.33" width="144.47" height="3.21"/><rect class="cls-1" x="368.82" y="480.81" width="144.47" height="12.3"/><rect class="cls-1" x="368.82" y="533.43" width="144.47" height="19.78"/><path class="cls-1" d="M525,593.52V613.3H412q-7.37-5.62-14.54-11.54c-3.31-2.73-6.59-5.53-9.93-8.24Z" transform="translate(-11.76 0.01)"/><path class="cls-1" d="M525,653.61v19.76H513.11Q493,664.3,473.68,653.58Z" transform="translate(-11.76 0.01)"/><rect class="cls-1" x="764.07" y="351.61" width="28.44" height="28.44"/><rect class="cls-1" x="148.29" y="219.1" width="28.44" height="28.44"/><rect class="cls-1" x="148.29" y="285.16" width="28.44" height="28.44"/><rect class="cls-1" x="148.29" y="351.22" width="28.44" height="28.44"/><rect class="cls-1" x="148.29" y="417.27" width="28.44" height="28.44"/><rect class="cls-1" x="148.29" y="483.33" width="28.44" height="28.44"/><rect class="cls-1" x="148.29" y="549.39" width="28.44" height="28.44"/><rect class="cls-2" x="872.64" y="351.61" width="28.44" height="28.44"/><rect class="cls-1" x="764.07" y="421.76" width="28.44" height="28.44"/><rect class="cls-2" x="872.64" y="421.76" width="28.44" height="28.44"/><rect class="cls-1" x="764.07" y="491.9" width="28.44" height="28.44"/><rect class="cls-2" x="872.64" y="491.9" width="28.44" height="28.44"/><rect class="cls-1" x="764.07" y="562.05" width="28.44" height="28.44"/><rect class="cls-2" x="872.64" y="562.05" width="28.44" height="28.44"/><rect class="cls-1" x="764.07" y="632.2" width="28.44" height="28.44"/><rect class="cls-1" x="872.64" y="632.2" width="28.44" height="28.44"/><polygon class="cls-1" points="764.07 720.68 764.07 702.34 792.5 702.34 792.5 718.07 764.07 720.68"/><path class="cls-1" d="M18,298.37v16.27h97.33V298.37Zm9.7,15.25H19.76V299.37h8Zm9.69,0h-8V299.37h8Zm9.67,0h-8V299.37h8Zm9.69,0h-8V299.37h8Zm9.68,0h-8V299.37h8Zm9.69,0h-8V299.37h8Zm9.69,0h-8V299.37h8Zm9.68,0h-8V299.37h8Zm9.68,0h-8V299.37h8Zm9.68,0h-8V299.37h8Z" transform="translate(-11.76 0.01)"/><path class="cls-1" d="M18,345.71V362h97.33V345.71ZM27.7,361H19.76V346.74h8Zm9.69,0h-8V346.74h8Zm9.67,0h-8V346.74h8Zm9.69,0h-8V346.74h8Zm9.68,0h-8V346.74h8Zm9.69,0h-8V346.74h8Zm9.69,0h-8V346.74h8Zm9.68,0h-8V346.74h8Zm9.68,0h-8V346.74h8Zm9.68,0h-8V346.74h8Z" transform="translate(-11.76 0.01)"/><path class="cls-1" d="M18,393.07v16.3h97.33v-16.3Zm9.7,15.24H19.76V394.09h8Zm9.69,0h-8V394.09h8Zm9.67,0h-8V394.09h8Zm9.69,0h-8V394.09h8Zm9.68,0h-8V394.09h8Zm9.69,0h-8V394.09h8Zm9.69,0h-8V394.09h8Zm9.68,0h-8V394.09h8Zm9.68,0h-8V394.09h8Zm9.68,0h-8V394.09h8Z" transform="translate(-11.76 0.01)"/><path class="cls-1" d="M18,440.43v16.25h97.33V440.43Zm9.7,15.24H19.76V441.44h8Zm9.69,0h-8V441.44h8Zm9.67,0h-8V441.44h8Zm9.69,0h-8V441.44h8Zm9.68,0h-8V441.44h8Zm9.69,0h-8V441.44h8Zm9.69,0h-8V441.44h8Zm9.68,0h-8V441.44h8Zm9.68,0h-8V441.44h8Zm9.68,0h-8V441.44h8Z" transform="translate(-11.76 0.01)"/><path class="cls-1" d="M18.42,487.78c.39,1.53.83,3.06,1.29,4.57V488.8h8V503H23.43c.13.33.26.69.39,1h91.51V487.78Zm19,15.24h-8V488.8h8Zm9.67,0h-8V488.8h8Zm9.69,0h-8V488.8h8Zm9.68,0h-8V488.8h8Zm9.69,0h-8V488.8h8Zm9.69,0h-8V488.8h8Zm9.68,0h-8V488.8h8Zm9.68,0h-8V488.8h8Zm9.68,0h-8V488.8h8Z" transform="translate(-11.76 0.01)"/><path class="cls-1" d="M41,535.14c.25.32.49.68.75,1h5.29V543c.57.68,1.13,1.36,1.71,2V536.1h8v14.27H53.53c.32.33.63.68,1,1h60.83V535.14Zm25.41,15.23h-8V536.16h8Zm9.69,0h-8V536.16h8Zm9.69,0h-8V536.16h8Zm9.68,0h-8V536.16h8Zm9.68,0h-8V536.16h8Zm9.68,0h-8V536.16h8Z" transform="translate(-11.76 0.01)"/><path class="cls-1" d="M94.41,582.49c.91.52,1.84,1,2.78,1.52v-.5h8V588l1.7.79v-5.29h8v8.65a2,2,0,0,0,.48.18v-9.85Z" transform="translate(-11.76 0.01)"/><path class="cls-1" d="M754.48,333.92Zm-61.6,295.14ZM628.61,478.89c.19.64.35,1.28.53,1.91h0C629,480.17,628.81,479.53,628.61,478.89Zm125.87-145Zm-604-149.74v4.27h44.67v-4.27Zm542.4,444.91ZM628.61,478.89c.19.64.35,1.28.53,1.91h0C629,480.17,628.81,479.53,628.61,478.89Zm125.87-145ZM692.88,629ZM628.61,478.89c.19.64.35,1.28.53,1.91h0C629,480.17,628.81,479.53,628.61,478.89Z" transform="translate(-11.76 0.01)"/><path class="cls-3" d="M360,272.86" transform="translate(-11.76 0.01)"/><path class="cls-3" d="M411.28,604.86s.74,4.95,1.24,9.09" transform="translate(-11.76 0.01)"/><path class="cls-4" d="M135.87,445.14" transform="translate(-11.76 0.01)"/><path class="cls-4" d="M135.87,586.31" transform="translate(-11.76 0.01)"/><path class="cls-5" d="M132.76,565.79" transform="translate(-11.76 0.01)"/><path class="cls-5" d="M60.81,516.47" transform="translate(-11.76 0.01)"/><path class="cls-5" d="M.48,470.13" transform="translate(-11.76 0.01)"/><path class="cls-5" d="M132.76,481.69" transform="translate(-11.76 0.01)"/><path class="cls-5" d="M93.59,454.85" transform="translate(-11.76 0.01)"/><path class="cls-5" d="M60.76,429.63" transform="translate(-11.76 0.01)"/><path class="cls-5" d="M134,538.43" transform="translate(-11.76 0.01)"/><path class="cls-5" d="M179.33,491" transform="translate(-11.76 0.01)"/><path class="cls-5" d="M216.63,447.56" transform="translate(-11.76 0.01)"/><path class="cls-6" d="M999.67,471.72s-16.51-82.14-10.19-92.36c0,0,.23-9.5-.15-21.61v-1.39a30.6,30.6,0,0,0,3.47,2,28.12,28.12,0,0,0,18.9,2.44l-5-5.57c-1.2-1.33-2.45-2.77-2.71-4.53s.46-3.33,1.08-4.9c4.75-12,5-27.09-4.15-36.25-7.73-7.7-9.61-17.64-18-24.67-6.13-5.15-9.5-12.7-12.68-20-2.69-6.17-5.4-12.39-6.94-18.93-1.2-5.11-1.68-10.4-3.33-15.39s-4.74-9.84-9.57-12.07c-1.72-.79-3.63-1.24-5.2-2.29-2.06-1.39-3.3-3.65-4.79-5.63-7.57-10-32.92-4.11-44.92,0a25.34,25.34,0,0,0-8.88,4.92l.11-.18c.09-.15.2-.3.3-.45a15.8,15.8,0,0,0-3.36,3.75c-1.75,2.77-2.48,6-3.94,9C878,231.11,868.17,241,872.38,245a3.63,3.63,0,0,0,1,.64,8.65,8.65,0,0,0,5,.5l-.18.43A29.29,29.29,0,0,0,876,257.67c0,16.43,13.55,29.75,30.28,29.75a30.67,30.67,0,0,0,9.27-1.43c.07.38.13.76.2,1.14a3.5,3.5,0,0,0,.07.45h0l-.53.74-.09-.13-15.7,21.94c-2.4,1.69-16.22,11.69-17,19.19-.82,8.21-1.64,17.82-1.64,17.82l-.11,2.06a6.2,6.2,0,0,1-5,1.35c-4.9-.8-4.9,18-4.9,18s-3.26,3-5.5.4-8.16,6.21-8.16,6.21l-37.1,1.6h0l-.85.05-2-6.19A2.61,2.61,0,0,0,814,369a2.53,2.53,0,0,0-.45.19l-.14.08-.26.18-.13.12-.2.21-.12.14-.06.06h0a2.52,2.52,0,0,0-.36,2.24l1.72,5.31c-7.16,1.44-14.48,5.5-8.51,16.68l-30.26-5.59,9.79,8.22,50.54,10.43c-.67,1.2-.23,2.94,1.86,5.39,9,10.57,25.4,13.44,32,14.18a56.59,56.59,0,0,0,6.49,11l-.57,10.53s-16.71,80.26-19.77,84.33a47.74,47.74,0,0,0,4.23-5.57c-4.85,16.49-11.63,39.06-13.41,42.44-2.86,5.4-5.51,27.25-2.25,28.65,1,.43,3.86.22,7.94-.09v1.81l-.18,68.59s.82,42.07-1.43,46.08S847.62,727,847.62,727s-9,16.59-16.13,23.26a1.07,1.07,0,0,1-.16.14l-.22-1.56s-8.57,10.82-27.53,10.21c0,0-11.41,7.42,5.51,7.82s38.53-.6,38.53-.6,15.09-23,27.73-20v17.43h3.87V746a15.86,15.86,0,0,0,6.89-10.43,12.69,12.69,0,0,0-4.52-11.73,7.49,7.49,0,0,1-2.47-5.48l-.14.12a10.57,10.57,0,0,0-.13-1.08c-1.11-9-2.5-27.57,2.41-41.31,6.73-18.84,8.77-45.08,3.87-60.7a139.51,139.51,0,0,1-3.89-15.21c-.12-.65-.23-1.27-.33-1.85a77.94,77.94,0,0,1,9.93,2c11.35,3.13,36.18,3.71,57.38,3.54,0,.58.11,1.19.18,1.8a65.84,65.84,0,0,0,2.36,12.52c2.66,8,3.88,43.27,3.88,43.27s3.43,29,1.56,40.8c-1,6.56-2,13.15-2.57,19.77v.13s-5.62,16-9.73,24.69c-.1.22-.21.44-.31.65a13.08,13.08,0,0,0-3.21.71s-5.51,11-11,12.82-3.67,7.81,8.76,5.61,31.2-4,31.2-4l.81-11.22,3.82-4.78-1,11.19L977,757l-.54-13.61,6.25-7.82s7.55-6.72-3.67-19.94v.29c-.12-.19-.23-.39-.36-.58v-.06c-1.86-2.88-3.34-8.25-.63-17.78,4.9-17.22,7.75-32.85,7.75-32.85s10.94-41.87-2.21-61.68h.58a33.27,33.27,0,0,1-2.83-8.8q-.11-.54-.18-1.11c9.73-.56,19.28-2.32,27.07-6.12C1008.24,586.9,1003.55,487.54,999.67,471.72Zm-123.53-69.3v.2l-2,.1Zm-6.86.95a2.15,2.15,0,0,0-.9.43,8.89,8.89,0,0,0-1.57,4.11l-3.12-.7s-2.19-.47-5.34-1l-1.49-1.5C861,404.37,865.22,403.87,869.28,403.37Z" transform="translate(-11.76 0.01)"/><polygon class="cls-7" points="960.75 743.54 959.56 757.71 963.55 756.91 962.95 741.54 960.75 743.54"/><path class="cls-8" d="M881.48,676.25c-4.81,13.7-3.45,32.19-2.37,41.17.4,3.32.77,5.34.77,5.34s-7.19,16.38-7.79,17-21.16,13.17-21.16,13.17l-14.37,8.39S822,754.93,829,752.73a10.59,10.59,0,0,0,3.77-2.57c7-6.65,15.79-23.18,15.79-23.18s.6-8.39,2.8-12.38,1.4-45.92,1.4-45.92l.17-68.35v-8.91l27.35.2a62.11,62.11,0,0,0,1.18,9,136.62,136.62,0,0,0,3.81,15.16C890.06,631.37,888.06,657.48,881.48,676.25Z" transform="translate(-11.76 0.01)"/><path class="cls-3" d="M879.88,722.76s-7.19,16.38-7.79,17-21.16,13.17-21.16,13.17l-14.37,8.39S822,754.93,829,752.73a10.59,10.59,0,0,0,3.77-2.57l.62,4.37,4.79-.2,41-36.89C879.51,720.74,879.88,722.76,879.88,722.76Z" transform="translate(-11.76 0.01)"/><path class="cls-7" d="M879.38,718.37l-41.23,37.14-4.79.2-1-7s-8.38,10.78-27,10.18c0,0-11.18,7.39,5.39,7.79s37.73-.6,37.73-.6,14.78-23,27.15-20v17.37h3.8V745.92a15.8,15.8,0,0,0,6.74-10.4,12.73,12.73,0,0,0-4.41-11.68A7.56,7.56,0,0,1,879.38,718.37Z" transform="translate(-11.76 0.01)"/><path class="cls-8" d="M976.31,697.61c-2.66,9.5-1.21,14.85.61,17.72v.06a32.78,32.78,0,0,1,4.78,11.67l.16.9L963.1,755.31l-10.18,4s-16.37-5.59-13.38-7.19c.75-.39,1.92-2.47,3.26-5.34,4-8.65,9.52-24.61,9.52-24.61V722c.58-6.59,1.5-13.16,2.52-19.7,1.83-11.77-1.53-40.66-1.53-40.66s-1.2-35.13-3.8-43.12a66.55,66.55,0,0,1-2.33-12.44c-.54-5-.66-9.12-.66-9.12s10.78-15,30.54,1.2a21.7,21.7,0,0,1,4.13,4.48c13.65,19.42,2.66,62.2,2.66,62.2S981.1,680.44,976.31,697.61Z" transform="translate(-11.76 0.01)"/><path class="cls-3" d="M981.89,728l-18.76,27.35-10.18,4s-16.37-5.59-13.38-7.19c.75-.39,1.92-2.47,3.26-5.34,6.93-.06,10.52,6.54,10.52,6.54l8.78-1.4s11.58-22.76,14.18-24.15.4-10.39.4-10.39v-2.29c.07.08.13.17.21.25v.06a32.78,32.78,0,0,1,4.78,11.67Z" transform="translate(-11.76 0.01)"/><path class="cls-7" d="M954,753.91s-5-9.18-14.58-5.79c0,0-5.39,11-10.78,12.78s-3.59,7.78,8.59,5.59,30.54-4,30.54-4l.8-11.19,12.38-15.77s7.38-6.69-3.6-19.86V718s2.2,9-.4,10.39-14.14,24.16-14.14,24.16Z" transform="translate(-11.76 0.01)"/><path class="cls-3" d="M880.28,591.6a62.11,62.11,0,0,0,1.18,9c-11.26-1.65-21.71-.83-28.56-.29V591.4Z" transform="translate(-11.76 0.01)"/><path class="cls-3" d="M982.3,605.17s-16,.78-35.08.94c-.54-5-.66-9.12-.66-9.12s10.78-15,30.54,1.2a21.7,21.7,0,0,1,4.13,4.48A25,25,0,0,0,982.3,605.17Z" transform="translate(-11.76 0.01)"/><path class="cls-7" d="M982.3,603.37s-70.08,3.39-91.44-2.6-42.53-.8-45.72-2.19-.6-23.16,2.2-28.55,18.16-59.9,18.16-59.9l14.78-77.06,15.57-4.29,1.1-.31L924.08,421,944,415.5s39.53,154.33,36.14,165.71a29.15,29.15,0,0,0-.58,13.39A33.32,33.32,0,0,0,982.3,603.37Z" transform="translate(-11.76 0.01)"/><path class="cls-9" d="M828.76,380.37s-14,15-3.4,23.36,17.57.8,17.57.8Z" transform="translate(-11.76 0.01)"/><path class="cls-3" d="M828.76,380.37s-14,15-3.4,23.36,17.57.8,17.57.8Z" transform="translate(-11.76 0.01)"/><path class="cls-8" d="M941.87,281.75s-1.64,1.56-4.11,3.86c-3.52,3.29-8.73,8.1-13.35,12.13-6.4,5.57-11.68,9.66-9.79,6.17s1.53-9.57.59-15.26c-.07-.38-.13-.76-.2-1.13a104.83,104.83,0,0,0-3.09-12.36S922.26,261.8,928,256.53c2.13-2,3.62-2.82,3.71-1.43.1,1.87,1.5,6,3.24,10.38.05.14.1.27.16.41,1.16,3,2.47,6.08,3.62,8.74C940.47,278.71,941.87,281.75,941.87,281.75Z" transform="translate(-11.76 0.01)"/><path class="cls-3" d="M935.09,265.89a29.69,29.69,0,0,1-19.88,22.76,104.43,104.43,0,0,0-3.29-13.49S931.39,250,931.69,255.1C931.76,257,933.28,261.31,935.09,265.89Z" transform="translate(-11.76 0.01)"/><path class="cls-3" d="M913.27,295.37l2.52-3.55s1.67,10.18,7.81,5.69S930,331.3,930,331.3l-6.59,98.53L875.83,427l1.35-47.61,5.39-24,13.33-34.89L903.83,309Z" transform="translate(-11.76 0.01)"/><path class="cls-7" d="M930,331.91,924,421l-.63,9.44-26.55-1.59-1-.06-20-1.2L877.21,380l5.39-24,13.33-34.89,7.93-11.53,9.44-13.63,2.52-3.54s1.67,10.18,7.81,5.69l.13-.09h0C929.76,294.18,930,331.91,930,331.91Z" transform="translate(-11.76 0.01)"/><path class="cls-10" d="M883.27,347.63s-2.39,5-7.19,4.19-4.79,18-4.79,18-3.19,3-5.39.4-8,6.19-8,6.19L821.56,378s16.17,7.39,13,29.75c0,0,54.9-3.4,56.7-8.59S883.27,347.63,883.27,347.63Z" transform="translate(-11.76 0.01)"/><path class="cls-11" d="M883.27,347.63s-2.39,5-7.19,4.19-4.79,18-4.79,18-3.19,3-5.39.4-8,6.19-8,6.19L821.56,378s16.17,7.39,13,29.75c0,0,54.9-3.4,56.7-8.59S883.27,347.63,883.27,347.63Z" transform="translate(-11.76 0.01)"/><polygon class="cls-10" points="765.9 389.77 775.48 397.95 854.34 414.52 844.56 404.54 765.9 389.77"/><path class="cls-10" d="M913.42,298.52c-1.31,2-5.06,12.24-8.19,21.18-2.61,7.45-4.79,14-4.79,14s-5.09,33.14-7.69,39.13-1.19,29.35-1.19,29.35l-9.69,57.69s-4.39,29.75-11.17,47.52c-6.69,17.49-14.14,25.69-14.37,26,3-4.06,19.35-84,19.35-84l5.4-100.82s.79-9.58,1.59-17.77,17-19.37,17-19.37l15.62-22.21C916.86,291.27,915.81,294.93,913.42,298.52Z" transform="translate(-11.76 0.01)"/><path class="cls-8" d="M872.69,428.09s-23-1-34.14-14.38,25.75-5.34,25.75-5.34l9.59,2.2Z" transform="translate(-11.76 0.01)"/><path class="cls-3" d="M980.1,581.22a29.15,29.15,0,0,0-.58,13.39c-25.09,1.78-51.93-5-51.93-5-5,4.6-18.17,11.38-18.17,11.38l-7.18-89c-4.59-12-6.39-74.87-6.39-74.87s.41-3.29,1-8.22a1,1,0,0,1,0-.37c1.79-13.77,5.34-39.62,7.08-43.11,2.4-4.8-7.38-17.57-7.38-17.57l4.45-38,.54-4.58c9.38-4.19,16.57-17.57,16.57-17.57l5.52-9.67h0c6-3.85,6.31,33.88,6.31,33.88l-6,89.09,19.88-5.49S983.49,569.84,980.1,581.22Z" transform="translate(-11.76 0.01)"/><path class="cls-10" d="M1005.85,587.37c-27.35,13.58-77.06,1-77.06,1-5,4.6-18.17,11.38-18.17,11.38l-7.19-89c-4.58-12-6.38-74.87-6.38-74.87s5.78-46.91,8.18-51.7c.7-1.4.36-3.48-.47-5.72A72.41,72.41,0,0,1,900.38,345l1.92-16.31.53-4.57c9.39-4.2,16.58-17.58,16.58-17.58l5-8.76,9.2-16.14L938,274l.74.67,5.65,5.12,6,5c7.83,6.6,21.36,18.22,28.34,25.33,6.14,6.26,8.08,30.61,8.64,48.94.37,12.07.15,21.53.15,21.53-6.19,10.19,10,92,10,92C1001.26,488.37,1005.85,587.37,1005.85,587.37Z" transform="translate(-11.76 0.01)"/><path class="cls-11" d="M953.35,306.31S934.58,342,936.76,355.62s8.38,28.95,5.39,32.54a11,11,0,0,1-8.79,4.39c-3,.2-11,5.79-11,6.39s-7.39.6-14,3.4S892,406.73,892,406.73s-19-.6-20.77,1.2-3.59,12.57.2,21.16,8,15,11.18,16.17,23.36-5.59,39.73-7.19,34.14-14.57,34.14-14.57,19.57-7,23-18.77-4.19-76.46-4.19-76.46S969.52,298.12,953.35,306.31Z" transform="translate(-11.76 0.01)"/><path class="cls-11" d="M951,303.31s-18.77,35.74-16.57,49.31,8.38,28.95,5.38,32.55a11,11,0,0,1-8.78,4.39c-3,.2-11,5.79-11,6.39s-7.39.6-14,3.39-16.37,4.39-16.37,4.39-19-.6-20.76,1.2-3.6,12.58.2,21.16,8,15,11.18,16.17,23.36-5.59,39.73-7.18S954.1,420.5,954.1,420.5s19.56-7,22.95-18.76-4.19-76.47-4.19-76.47S967.12,295.13,951,303.31Z" transform="translate(-11.76 0.01)"/><path class="cls-10" d="M952.76,304.51S934,340.25,936.19,353.82s8.38,28.95,5.39,32.54a11,11,0,0,1-8.79,4.4c-3,.2-11,5.79-11,6.38s-7.38.6-14,3.4-16.37,4.39-16.37,4.39-19-.6-20.77,1.2-3.59,12.58.2,21.16,8,15,11.18,16.17,23.36-5.59,39.73-7.19S955.9,421.7,955.9,421.7s19.57-7,23-18.77-4.14-76.46-4.14-76.46S968.92,296.37,952.76,304.51Z" transform="translate(-11.76 0.01)"/><path class="cls-3" d="M952.35,400.37s-15-3-9.78,2,5.19,9.38,11.58,9.18S952.35,400.37,952.35,400.37Z" transform="translate(-11.76 0.01)"/><path class="cls-3" d="M977.7,508s-6.78,4.59,6.19,15.17S977.7,508,977.7,508Z" transform="translate(-11.76 0.01)"/><path class="cls-3" d="M964.76,545.68c0,.6-2.4,22,6.58,27.35S964.76,545.68,964.76,545.68Z" transform="translate(-11.76 0.01)"/><path class="cls-8" d="M822.18,378c-7.24.25-22.88,2.46-14.77,17.59,7.17,13.39,19.22,4.44,26-2.35A25.51,25.51,0,0,0,822.18,378Z" transform="translate(-11.76 0.01)"/><path class="cls-8" d="M834.15,392.37Z" transform="translate(-11.76 0.01)"/><path class="cls-8" d="M833.5,393.08l.3-.31Z" transform="translate(-11.76 0.01)"/><path class="cls-3" d="M950.36,285.37c-7.68,5.25-14.12,9.68-15.38,10.6-3.44,2.55-10,17.52-14.23,25.16-3.37,6.15-14.32,7.73-18.45,8.12l.53-4.57c9.39-4.2,16.58-17.58,16.58-17.58L938,274.56l6.39,5.81Z" transform="translate(-11.76 0.01)"/><path class="cls-12" d="M950.36,284.77c-7.68,5.25-14.12,9.68-15.38,10.61-3.44,2.54-10,17.51-14.23,25.15-3.37,6.15-14.32,7.73-18.45,8.12l.53-4.57c9.39-4.2,16.58-17.58,16.58-17.58L938,274l6.39,5.79S946.76,281.73,950.36,284.77Z" transform="translate(-11.76 0.01)"/><path class="cls-8" d="M935.58,259.29a29.66,29.66,0,1,1-12.86-24.43A29.67,29.67,0,0,1,935.58,259.29Z" transform="translate(-11.76 0.01)"/><path class="cls-3" d="M987.34,359a26.36,26.36,0,0,1-9.57-10.28c-1.67-3.3-2.78-7.11-5.63-9.45-2.57-2.1-6-2.61-9.2-3.55-10.52-3.11-19.34-12.71-19.67-23.67-.16-5.16,1.45-10.31.72-15.42a17.19,17.19,0,0,0-3.34-7.95,27.44,27.44,0,0,0-2.89-3.11c-1.4-1.32-2.87-2.6-4.15-4a15.41,15.41,0,0,1-2.1-2.85,13.53,13.53,0,0,1-1.15-2.65c-2-6.12-.18-13.38-2.38-19.57l-.12-.34c-.83-2.2-2.52-4.4-4.87-4.57s-4.36,1.78-6.6,2.65c-4.69,1.82-9.75-1.28-13.66-4.44s-8.32-6.77-13.29-6.07c-3.29.47-5.89,2.71-8.92,3.87a12.75,12.75,0,0,1-2.11.61,29.65,29.65,0,0,1,57.17,11.05,29.24,29.24,0,0,1-.65,6.19c.05.14.1.27.16.41,1.16,3,2.47,6.08,3.62,8.74l5.65,5.12,6,5c7.83,6.6,21.36,18.22,28.34,25.33C984.84,316.37,986.76,340.71,987.34,359Z" transform="translate(-11.76 0.01)"/><path class="cls-13" d="M880.17,229.37c1.43-2.91,2.14-6.17,3.85-8.93,2.51-4,6.89-6.56,11.39-8.11,11.75-4.05,36.58-9.93,44,0,1.46,2,2.67,4.22,4.69,5.6,1.54,1,3.4,1.5,5.09,2.29,4.73,2.22,7.75,7.06,9.36,12s2.09,10.24,3.27,15.33c1.51,6.53,4.16,12.72,6.8,18.87,3.11,7.26,6.41,14.79,12.41,19.92,8.19,7,10,16.91,17.6,24.59,9,9.12,8.71,24.17,4.07,36.12-.61,1.57-1.3,3.21-1.06,4.88s1.48,3.19,2.65,4.52l4.92,5.55c-11.64,2.81-24.81-3.27-30.23-13.94-1.67-3.3-2.78-7.1-5.64-9.45-2.56-2.1-6-2.6-9.19-3.54-10.52-3.12-19.34-12.73-19.67-23.69-.16-5.15,1.45-10.3.72-15.4a17,17,0,0,0-3.35-8c-2.75-3.59-6.9-6-9.14-10-3.79-6.69-.91-15.38-3.64-22.56-.84-2.2-2.52-4.4-4.87-4.57s-4.36,1.78-6.61,2.65c-4.68,1.82-9.74-1.27-13.65-4.44s-8.32-6.77-13.3-6.06c-3.29.46-5.88,2.7-8.91,3.87-2.24.86-6.78,1.63-8.74-.26C868.85,242.8,878.44,232.93,880.17,229.37Z" transform="translate(-11.76 0.01)"/><path class="cls-3" d="M981.76,344.76c-1.68-3.3-2.78-7.1-5.64-9.44-2.56-2.1-6-2.61-9.2-3.55-10.51-3.11-19.33-12.72-19.67-23.68-.16-5.15,1.45-10.31.73-15.41a17.1,17.1,0,0,0-3.35-7.95c-2.76-3.59-6.91-6-9.14-10-3.79-6.68-.91-15.37-3.65-22.56-.83-2.19-2.52-4.39-4.86-4.57s-4.37,1.79-6.61,2.66c-4.68,1.82-9.75-1.28-13.65-4.44s-8.33-6.77-13.3-6.07c-3.29.47-5.89,2.71-8.91,3.87-2.24.86-6.79,1.64-8.75-.25-4.12-4,5.47-13.85,7.19-17.39,1.43-2.92,2.14-6.17,3.86-8.93.09-.15.19-.3.29-.45a15.85,15.85,0,0,0-3.29,3.74c-1.71,2.76-2.42,6-3.85,8.93-1.73,3.54-11.32,13.42-7.19,17.39,2,1.9,6.5,1.12,8.74.26,3-1.17,5.62-3.41,8.91-3.87,5-.71,9.4,2.9,13.3,6.06s9,6.26,13.66,4.44c2.24-.87,4.2-2.83,6.6-2.65s4,2.37,4.87,4.57c2.73,7.18-.15,15.87,3.64,22.56,2.24,3.93,6.39,6.39,9.14,10a17,17,0,0,1,3.35,8c.73,5.1-.88,10.25-.72,15.4.33,11,9.15,20.57,19.67,23.69,3.17.94,6.63,1.44,9.19,3.54,2.87,2.35,4,6.15,5.64,9.45,5.42,10.67,18.59,16.75,30.23,13.94l-2.32-2.62C996.58,359.58,986.37,353.84,981.76,344.76Z" transform="translate(-11.76 0.01)"/><path class="cls-3" d="M912.82,299.12c-1.31,2-5.06,12.24-8.19,21.18-2.93-1.14-5.59-8.41-5.59-8.41l15.62-22.22C916.26,291.87,915.21,295.52,912.82,299.12Z" transform="translate(-11.76 0.01)"/><path class="cls-12" d="M913.42,298.52c-1.31,2-5.06,12.24-8.19,21.18-2.93-1.13-5.59-8.41-5.59-8.41l15.62-22.21C916.86,291.27,915.81,294.93,913.42,298.52Z" transform="translate(-11.76 0.01)"/><path class="cls-14" d="M822.6,400.68l-8.66-27.31a2.55,2.55,0,0,1,1.65-3.21h0a2.56,2.56,0,0,1,3.2,1.66l8.66,27.28-.86,5.71Z" transform="translate(-11.76 0.01)"/><path class="cls-15" d="M814.76,371h0a2.56,2.56,0,0,1,3.21,1.66l8.66,27.28-.65,4.28.63.66.86-5.71-8.71-27.28a2.56,2.56,0,0,0-3.2-1.66h0a2.6,2.6,0,0,0-1.33,1A3.54,3.54,0,0,1,814.76,371Z" transform="translate(-11.76 0.01)"/><polygon class="cls-16" points="810.84 400.69 815.7 399.15 814.99 403.83 814.84 404.86 813.42 403.38 810.84 400.69"/><path class="cls-17" d="M825.18,403.37a.86.86,0,0,1,.31-.26.44.44,0,0,1,.47,0,1,1,0,0,1,.17.27.87.87,0,0,0,.62.41l-.15,1Z" transform="translate(-11.76 0.01)"/><path class="cls-8" d="M813.89,383.07s17.37-.1,13.28,7.29-10.48,8.28-10.48,8.28Z" transform="translate(-11.76 0.01)"/><path class="cls-18" d="M780.29,215.25l-41-41.23a21.77,21.77,0,0,0-30.78-.34l-.14.13L450.91,429.09,342.05,319.38a21.72,21.72,0,0,0-30.7-.22l-41.44,41a22,22,0,0,0-.21,30.92L435,557.7a22,22,0,0,0,30.93.22L780.07,246.16a21.77,21.77,0,0,0,.35-30.78Z" transform="translate(-11.76 0.01)"/><path class="cls-4" d="M125,47.89a69.67,69.67,0,0,1,69.69,69.66c0,29.89-49.55,104.78-68.69,138.53a1.15,1.15,0,0,1-2,0c-19.12-33.75-68.66-108.64-68.66-138.53A69.66,69.66,0,0,1,125,47.89Zm27.45,34.83a42.13,42.13,0,1,0,0,63.94A42.13,42.13,0,0,0,152.43,82.72Z" transform="translate(-11.76 0.01)"/><path class="cls-4" d="M114.41,99.61V84.72a4.49,4.49,0,0,1,4.5-4.49h12.17a4.49,4.49,0,0,1,4.49,4.49V99.61a4.51,4.51,0,0,0,4.5,4.5H155a4.49,4.49,0,0,1,4.49,4.49v12.17a4.49,4.49,0,0,1-4.49,4.5H140.07a4.5,4.5,0,0,0-4.5,4.5v14.9a4.49,4.49,0,0,1-4.49,4.5H118.91a4.49,4.49,0,0,1-4.5-4.5v-14.9a4.49,4.49,0,0,0-4.49-4.5H95a4.5,4.5,0,0,1-4.5-4.5V108.6a4.5,4.5,0,0,1,4.5-4.49h14.89A4.5,4.5,0,0,0,114.41,99.61Z" transform="translate(-11.76 0.01)"/></svg>