<svg id="Layer_1" data-name="Layer 1" xmlns="http://www.w3.org/2000/svg" viewBox="0 0 4349.35 6566.95"><defs><style>.cls-1{fill:#d8384d;}.cls-2{isolation:isolate;font-size:3.05px;font-family:Arial-BoldMT, Arial;font-weight:700;}</style></defs><title>noun_hospital location_2211477</title><path class="cls-1" d="M3565.19,0c1201.55,0,2175,973.43,2175,2174.37,0,932.92-1546.33,3270.33-2143.78,4323.84-13.74,24.23-48.64,24.22-62.37,0-596.87-1053.51-2143.19-3390.9-2143.19-4323.82C1390.83,973.43,2364.26,0,3565.19,0ZM4422,1087.14c-491.56-422.82-1221.41-422.82-1713,0-609.61,524.36-609.61,1471.39,0,1995.75,491.55,422.82,1221.4,422.82,1713,0C5031.59,2558.53,5031.59,1611.5,4422,1087.14Z" transform="translate(-1390.83)"/><path class="cls-1" d="M3235.23,1614.42V1149.75a140.32,140.32,0,0,1,140.32-140.33h379.89a140.33,140.33,0,0,1,140.33,140.33v464.67a140.32,140.32,0,0,0,140.33,140.32h464.67a140.33,140.33,0,0,1,140.33,140.33V2275a140.33,140.33,0,0,1-140.33,140.33H4036.1a140.32,140.32,0,0,0-140.33,140.32v465.28a140.33,140.33,0,0,1-140.33,140.33H3375.55a140.32,140.32,0,0,1-140.32-140.33V2555.61a140.32,140.32,0,0,0-140.33-140.32H2630.23A140.33,140.33,0,0,1,2489.9,2275V1895.07a140.33,140.33,0,0,1,140.33-140.33H3094.9A140.32,140.32,0,0,0,3235.23,1614.42Z" transform="translate(-1390.83)"/><text class="cls-2" transform="translate(0 6562.75)">Created by sandi</text><text class="cls-2" transform="translate(0 6565.8)">from the Noun Project</text></svg>